<svg width="695" height="148" viewBox="0 0 695 148" fill="none" xmlns="http://www.w3.org/2000/svg">
<path d="M-4.45247e-05 145.455V9.53674e-06H58.2386C68.9393 9.53674e-06 77.8645 1.58618 85.0142 4.75853C92.1638 7.93088 97.5378 12.3343 101.136 17.9688C104.735 23.5559 106.534 29.9953 106.534 37.2869C106.534 42.9688 105.398 47.964 103.125 52.2727C100.852 56.5341 97.7272 60.0379 93.75 62.7841C89.82 65.483 85.3219 67.4006 80.2556 68.5369V69.9574C85.7954 70.1941 90.9801 71.7566 95.8096 74.6449C100.687 77.5332 104.64 81.5815 107.67 86.7898C110.701 91.9508 112.216 98.1061 112.216 105.256C112.216 112.973 110.298 119.863 106.463 125.923C102.675 131.937 97.0644 136.695 89.6306 140.199C82.1969 143.703 73.035 145.455 62.1448 145.455H-4.45247e-05ZM30.7528 120.313H55.8238C64.3939 120.313 70.6439 118.679 74.5738 115.412C78.5037 112.098 80.4687 107.694 80.4687 102.202C80.4687 98.1771 79.4981 94.626 77.5568 91.5483C75.6155 88.4707 72.8456 86.0559 69.2471 84.304C65.696 82.5521 61.4583 81.6761 56.534 81.6761H30.7528V120.313ZM30.7528 60.8665H53.5511C57.7651 60.8665 61.5056 60.1326 64.7727 58.6648C68.0871 57.1496 70.6912 55.019 72.5852 52.2727C74.5265 49.5265 75.4971 46.2358 75.4971 42.4006C75.4971 37.1449 73.6269 32.9072 69.8863 29.6875C66.1931 26.4678 60.9375 24.858 54.1193 24.858H30.7528V60.8665ZM164.968 145.455L123.349 9.53674e-06H156.942L181.019 101.065H182.227L208.789 9.53674e-06H237.553L264.045 101.278H265.323L289.4 9.53674e-06H322.994L281.374 145.455H251.403L223.704 50.3551H222.567L194.94 145.455H164.968Z" fill="#FF6200"/>
<path d="M372.834 147.869C365.921 147.869 359.671 146.591 354.084 144.034C348.497 141.43 344.07 137.666 340.803 132.741C337.583 127.817 335.973 121.78 335.973 114.631C335.973 108.475 337.157 103.409 339.524 99.4318C341.892 95.4546 345.088 92.3059 349.112 89.9858C353.137 87.6657 357.635 85.9138 362.606 84.7301C367.578 83.5464 372.644 82.6468 377.805 82.0313C384.339 81.2737 389.642 80.6582 393.714 80.1847C397.786 79.6638 400.746 78.8352 402.592 77.6989C404.439 76.5625 405.362 74.7159 405.362 72.1591V71.6619C405.362 65.4593 403.61 60.6534 400.106 57.2443C396.65 53.8352 391.489 52.1307 384.624 52.1307C377.474 52.1307 371.839 53.7169 367.72 56.8892C363.648 60.0142 360.831 63.4943 359.268 67.3296L339.311 62.7841C341.678 56.1553 345.135 50.8049 349.68 46.733C354.273 42.6136 359.553 39.6307 365.518 37.7841C371.484 35.8902 377.758 34.9432 384.339 34.9432C388.696 34.9432 393.312 35.464 398.189 36.5057C403.113 37.5 407.706 39.3466 411.967 42.0455C416.276 44.7443 419.803 48.6032 422.55 53.6222C425.296 58.5938 426.669 65.0568 426.669 73.0114V145.455H405.93V130.54H405.078C403.705 133.286 401.645 135.985 398.899 138.636C396.153 141.288 392.625 143.49 388.317 145.241C384.008 146.993 378.847 147.869 372.834 147.869ZM377.45 130.824C383.321 130.824 388.34 129.664 392.507 127.344C396.721 125.024 399.917 121.993 402.095 118.253C404.321 114.465 405.433 110.417 405.433 106.108V92.0455C404.676 92.803 403.208 93.5133 401.03 94.1761C398.899 94.7917 396.461 95.3362 393.714 95.8097C390.968 96.2358 388.293 96.6383 385.689 97.0171C383.085 97.3485 380.907 97.6326 379.155 97.8693C375.035 98.3902 371.271 99.2661 367.862 100.497C364.5 101.728 361.802 103.504 359.766 105.824C357.777 108.097 356.783 111.127 356.783 114.915C356.783 120.17 358.724 124.148 362.606 126.847C366.489 129.498 371.437 130.824 377.45 130.824ZM454.954 145.455V36.3636H475.479V53.6932H476.616C478.604 47.822 482.108 43.2055 487.127 39.8438C492.193 36.4347 497.923 34.7301 504.315 34.7301C505.64 34.7301 507.203 34.7775 509.002 34.8722C510.849 34.9669 512.293 35.0852 513.334 35.2273V55.5398C512.482 55.303 510.967 55.0426 508.789 54.7585C506.611 54.4271 504.433 54.2614 502.255 54.2614C497.236 54.2614 492.762 55.3267 488.832 57.4574C484.949 59.5407 481.871 62.4527 479.599 66.1932C477.326 69.8864 476.19 74.1004 476.19 78.8352V145.455H454.954ZM589.08 36.3636V53.4091H529.492V36.3636H589.08ZM545.472 10.2273H566.708V113.423C566.708 117.543 567.324 120.644 568.555 122.727C569.786 124.763 571.372 126.16 573.313 126.918C575.302 127.628 577.456 127.983 579.776 127.983C581.481 127.983 582.972 127.865 584.251 127.628C585.529 127.391 586.523 127.202 587.234 127.06L591.069 144.602C589.838 145.076 588.086 145.549 585.813 146.023C583.54 146.544 580.7 146.828 577.29 146.875C571.703 146.97 566.495 145.975 561.665 143.892C556.836 141.809 552.93 138.589 549.947 134.233C546.964 129.877 545.472 124.408 545.472 117.827V10.2273ZM692.56 62.9972L673.313 66.4063C672.508 63.9441 671.23 61.6004 669.478 59.375C667.773 57.1496 665.453 55.3267 662.518 53.9063C659.582 52.4858 655.913 51.7756 651.509 51.7756C645.496 51.7756 640.477 53.125 636.452 55.8239C632.428 58.4754 630.415 61.9082 630.415 66.1222C630.415 69.768 631.765 72.7036 634.464 74.929C637.163 77.1544 641.519 78.9773 647.532 80.3977L664.861 84.375C674.899 86.6951 682.38 90.2699 687.305 95.0994C692.229 99.929 694.691 106.203 694.691 113.92C694.691 120.455 692.797 126.278 689.009 131.392C685.269 136.458 680.037 140.436 673.313 143.324C666.637 146.212 658.896 147.656 650.089 147.656C637.873 147.656 627.906 145.052 620.188 139.844C612.47 134.588 607.736 127.131 605.984 117.472L626.509 114.347C627.788 119.697 630.415 123.745 634.393 126.491C638.37 129.19 643.555 130.54 649.947 130.54C656.907 130.54 662.47 129.096 666.637 126.207C670.804 123.272 672.887 119.697 672.887 115.483C672.887 112.074 671.609 109.209 669.052 106.889C666.542 104.569 662.683 102.817 657.475 101.634L639.009 97.5852C628.829 95.2652 621.301 91.572 616.424 86.5057C611.594 81.4394 609.18 75.0237 609.18 67.2585C609.18 60.8191 610.979 55.1847 614.577 50.3551C618.176 45.5256 623.147 41.7614 629.492 39.0625C635.837 36.3163 643.105 34.9432 651.296 34.9432C663.086 34.9432 672.366 37.5 679.137 42.6136C685.908 47.6799 690.382 54.4744 692.56 62.9972Z" fill="#B5B5B5"/>
</svg>
