<svg width="342" height="157" viewBox="0 0 342 157" fill="none" xmlns="http://www.w3.org/2000/svg">
<g filter="url(#filter0_d_596_195)">
<path d="M1.09983 145.455V-2.09808e-05H61.7532C72.6434 -2.09808e-05 81.758 1.5388 89.097 4.61645C96.4834 7.6941 102.023 12.0028 105.716 17.5426C109.457 23.0824 111.327 29.4981 111.327 36.7898C111.327 42.3295 110.167 47.2774 107.847 51.6335C105.527 55.9422 102.331 59.517 98.2589 62.3579C94.187 65.1988 89.4758 67.1875 84.1254 68.3238V69.7443C89.9966 70.0284 95.418 71.6146 100.39 74.5028C105.409 77.3911 109.433 81.4157 112.463 86.5767C115.494 91.6903 117.009 97.7509 117.009 104.759C117.009 112.571 115.02 119.555 111.043 125.71C107.066 131.818 101.313 136.648 93.7845 140.199C86.2561 143.703 77.1178 145.455 66.3697 145.455H1.09983ZM36.2561 117.116H57.989C65.6121 117.116 71.2229 115.672 74.8214 112.784C78.4673 109.896 80.2902 105.871 80.2902 100.71C80.2902 96.9697 79.4142 93.75 77.6623 91.0511C75.9104 88.3049 73.4246 86.1979 70.2049 84.7301C66.9853 83.2149 63.1263 82.4574 58.6282 82.4574H36.2561V117.116ZM36.2561 59.8011H55.7163C59.5515 59.8011 62.9606 59.1619 65.9436 57.8835C68.9265 56.6051 71.2466 54.7585 72.9038 52.3437C74.6084 49.929 75.4606 47.017 75.4606 43.6079C75.4606 38.731 73.7324 34.8958 70.276 32.1023C66.8195 29.3087 62.1557 27.9119 56.2845 27.9119H36.2561V59.8011ZM168.784 145.455L126.455 -2.09808e-05H165.304L187.25 95.3125H188.458L213.529 -2.09808e-05H245.205L270.276 95.5256H271.483L293.5 -2.09808e-05H332.279L290.02 145.455H256.142L229.935 57.2443H228.799L202.591 145.455H168.784Z" fill="#FF6200"/>
</g>
<defs>
<filter id="filter0_d_596_195" x="-0.00039053" y="0" width="341.379" height="156.555" filterUnits="userSpaceOnUse" color-interpolation-filters="sRGB">
<feFlood flood-opacity="0" result="BackgroundImageFix"/>
<feColorMatrix in="SourceAlpha" type="matrix" values="0 0 0 0 0 0 0 0 0 0 0 0 0 0 0 0 0 0 127 0" result="hardAlpha"/>
<feOffset dx="4" dy="6"/>
<feGaussianBlur stdDeviation="2.55"/>
<feComposite in2="hardAlpha" operator="out"/>
<feColorMatrix type="matrix" values="0 0 0 0 0 0 0 0 0 0 0 0 0 0 0 0 0 0 0.25 0"/>
<feBlend mode="normal" in2="BackgroundImageFix" result="effect1_dropShadow_596_195"/>
<feBlend mode="normal" in="SourceGraphic" in2="effect1_dropShadow_596_195" result="shape"/>
</filter>
</defs>
</svg>
